# xmcd CD database file
#
# Track frame offsets:
#	150
#	15058
#	30091
#	43260
#	54795
#	75972
#	88435
#	102633
#	119805
#	133285
#
# Disc length: 1930 seconds
#
# Revision: 0
# Processed by: cddbd v1.5.2PL0 Copyright (c) Steve Scherf et al.
# Submitted via: CDex 1.79
#
DISCID=7907880a
DTITLE=The Devilles - Paradise In The Heart Of Dixie
DYEAR=2000
DGENRE=Country
TTITLE0=Makin` It Up As We Go
TTITLE1=Strong Enough To Fly
TTITLE2=Every Rose In Tennessee
TTITLE3=Right Where I Belong
TTITLE4=Makin` Love From A Memory
TTITLE5=It`s Your Turn
TTITLE6=You Can`t Hurt Me Anymore
TTITLE7=Dixie To Bakersfield
TTITLE8=Some Were Born To Run
TTITLE9=It`s All Over
EXTD=YEAR: 2000
EXTT0=
EXTT1=
EXTT2=
EXTT3=
EXTT4=
EXTT5=
EXTT6=
EXTT7=
EXTT8=
EXTT9=
PLAYORDER=
